<svg width="34" height="34" viewBox="0 0 34 34" fill="none" xmlns="http://www.w3.org/2000/svg">
<path d="M15.64 4.42001C15.0807 4.42001 14.62 4.88072 14.62 5.44001V6.12001H10.9703C10.3737 6.12001 9.81906 6.43377 9.51205 6.94544L8.98744 7.82001H7.82002C7.07293 7.82001 6.46002 8.43292 6.46002 9.18001C6.46002 9.92711 7.07293 10.54 7.82002 10.54H8.18526L9.40049 26.3361C9.48185 27.3958 10.3716 28.22 11.4345 28.22H22.5655C23.6285 28.22 24.5182 27.3958 24.5996 26.3361L25.8148 10.54H26.18C26.9271 10.54 27.54 9.92711 27.54 9.18001C27.54 8.43292 26.9271 7.82001 26.18 7.82001H25.0126L24.488 6.94544C24.181 6.43377 23.6263 6.12001 23.0297 6.12001H19.38V5.44001C19.38 4.88072 18.9193 4.42001 18.36 4.42001H15.64ZM15.64 5.10001H18.36C18.5521 5.10001 18.7 5.2479 18.7 5.44001V6.12001H15.3V5.44001C15.3 5.2479 15.4479 5.10001 15.64 5.10001ZM10.9703 6.80001H14.9029C14.9396 6.80608 14.9771 6.80608 15.0138 6.80001H18.9829C19.0196 6.80608 19.0571 6.80608 19.0938 6.80001H23.0297C23.3885 6.80001 23.7196 6.98768 23.9043 7.2954L24.4236 8.16001H23.29C23.2675 8.15969 23.2451 8.16386 23.2242 8.17226C23.2033 8.18066 23.1843 8.19313 23.1682 8.20895C23.1522 8.22476 23.1395 8.24361 23.1308 8.2644C23.1221 8.28518 23.1176 8.30748 23.1176 8.33001C23.1176 8.35254 23.1221 8.37485 23.1308 8.39563C23.1395 8.41641 23.1522 8.43526 23.1682 8.45108C23.1843 8.4669 23.2033 8.47937 23.2242 8.48777C23.2451 8.49617 23.2675 8.50033 23.29 8.50001H24.99H26.18C26.5597 8.50001 26.86 8.80035 26.86 9.18001C26.86 9.55968 26.5597 9.86001 26.18 9.86001H7.82002C7.44036 9.86001 7.14002 9.55968 7.14002 9.18001C7.14002 8.80035 7.44036 8.50001 7.82002 8.50001H9.18002H20.91C20.9325 8.50033 20.9549 8.49617 20.9758 8.48777C20.9967 8.47937 21.0158 8.4669 21.0318 8.45108C21.0478 8.43526 21.0606 8.41641 21.0693 8.39563C21.078 8.37485 21.0824 8.35254 21.0824 8.33001C21.0824 8.30748 21.078 8.28518 21.0693 8.2644C21.0606 8.24361 21.0478 8.22476 21.0318 8.20895C21.0158 8.19313 20.9967 8.18066 20.9758 8.17226C20.9549 8.16386 20.9325 8.15969 20.91 8.16001H9.57647L10.0958 7.2954C10.2804 6.98768 10.6115 6.80001 10.9703 6.80001ZM21.93 8.16001C21.9075 8.15969 21.8851 8.16386 21.8642 8.17226C21.8433 8.18066 21.8243 8.19313 21.8082 8.20895C21.7922 8.22476 21.7795 8.24361 21.7708 8.2644C21.7621 8.28518 21.7576 8.30748 21.7576 8.33001C21.7576 8.35254 21.7621 8.37485 21.7708 8.39563C21.7795 8.41641 21.7922 8.43526 21.8082 8.45108C21.8243 8.4669 21.8433 8.47937 21.8642 8.48777C21.8851 8.49617 21.9075 8.50033 21.93 8.50001H22.61C22.6325 8.50033 22.6549 8.49617 22.6758 8.48777C22.6967 8.47937 22.7158 8.4669 22.7318 8.45108C22.7478 8.43526 22.7606 8.41641 22.7693 8.39563C22.778 8.37485 22.7824 8.35254 22.7824 8.33001C22.7824 8.30748 22.778 8.28518 22.7693 8.2644C22.7606 8.24361 22.7478 8.22476 22.7318 8.20895C22.7158 8.19313 22.6967 8.18066 22.6758 8.17226C22.6549 8.16386 22.6325 8.15969 22.61 8.16001H21.93ZM8.86658 10.54H25.1335L23.9215 26.2843C23.8669 26.996 23.2794 27.54 22.5655 27.54H11.4345C10.7206 27.54 10.1331 26.996 10.0785 26.2843L8.86658 10.54ZM12.92 11.9C12.3587 11.9 11.9 12.3586 11.9 12.92V24.82C11.9 25.3814 12.3587 25.84 12.92 25.84C13.4814 25.84 13.94 25.3814 13.94 24.82V12.92C13.94 12.3586 13.4814 11.9 12.92 11.9ZM17 11.9C16.4387 11.9 15.98 12.3586 15.98 12.92V24.82C15.98 25.3814 16.4387 25.84 17 25.84C17.5614 25.84 18.02 25.3814 18.02 24.82V23.63C18.0203 23.6075 18.0162 23.5851 18.0078 23.5642C17.9994 23.5433 17.9869 23.5243 17.9711 23.5082C17.9553 23.4922 17.9364 23.4795 17.9156 23.4708C17.8949 23.4621 17.8726 23.4576 17.85 23.4576C17.8275 23.4576 17.8052 23.4621 17.7844 23.4708C17.7636 23.4795 17.7448 23.4922 17.729 23.5082C17.7131 23.5243 17.7007 23.5433 17.6923 23.5642C17.6839 23.5851 17.6797 23.6075 17.68 23.63V24.82C17.68 25.1977 17.3777 25.5 17 25.5C16.6223 25.5 16.32 25.1977 16.32 24.82V12.92C16.32 12.5423 16.6223 12.24 17 12.24C17.3777 12.24 17.68 12.5423 17.68 12.92V21.59C17.6797 21.6125 17.6839 21.6349 17.6923 21.6558C17.7007 21.6767 17.7131 21.6957 17.729 21.7118C17.7448 21.7278 17.7636 21.7406 17.7844 21.7493C17.8052 21.758 17.8275 21.7624 17.85 21.7624C17.8726 21.7624 17.8949 21.758 17.9156 21.7493C17.9364 21.7406 17.9553 21.7278 17.9711 21.7118C17.9869 21.6957 17.9994 21.6767 18.0078 21.6558C18.0162 21.6349 18.0203 21.6125 18.02 21.59V12.92C18.02 12.3586 17.5614 11.9 17 11.9ZM21.08 11.9C20.5187 11.9 20.06 12.3586 20.06 12.92V13.43C20.0597 13.4525 20.0639 13.4749 20.0723 13.4958C20.0807 13.5167 20.0931 13.5357 20.109 13.5518C20.1248 13.5678 20.1436 13.5806 20.1644 13.5893C20.1852 13.598 20.2075 13.6024 20.23 13.6024C20.2526 13.6024 20.2749 13.598 20.2956 13.5893C20.3164 13.5806 20.3353 13.5678 20.3511 13.5518C20.3669 13.5357 20.3794 13.5167 20.3878 13.4958C20.3962 13.4749 20.4003 13.4525 20.4 13.43V12.92C20.4 12.5423 20.7023 12.24 21.08 12.24C21.4577 12.24 21.76 12.5423 21.76 12.92V24.82C21.76 25.1977 21.4577 25.5 21.08 25.5C20.7023 25.5 20.4 25.1977 20.4 24.82V16.15C20.4003 16.1275 20.3962 16.1051 20.3878 16.0842C20.3794 16.0633 20.3669 16.0443 20.3511 16.0282C20.3353 16.0122 20.3164 15.9995 20.2956 15.9908C20.2749 15.9821 20.2526 15.9776 20.23 15.9776C20.2075 15.9776 20.1852 15.9821 20.1644 15.9908C20.1436 15.9995 20.1248 16.0122 20.109 16.0282C20.0931 16.0443 20.0807 16.0633 20.0723 16.0842C20.0639 16.1051 20.0597 16.1275 20.06 16.15V24.82C20.06 25.3814 20.5187 25.84 21.08 25.84C21.6414 25.84 22.1 25.3814 22.1 24.82V12.92C22.1 12.3586 21.6414 11.9 21.08 11.9ZM12.92 12.24C13.2977 12.24 13.6 12.5423 13.6 12.92V24.82C13.6 25.1977 13.2977 25.5 12.92 25.5C12.5423 25.5 12.24 25.1977 12.24 24.82V12.92C12.24 12.5423 12.5423 12.24 12.92 12.24ZM20.2274 14.2774C20.205 14.2777 20.183 14.2824 20.1625 14.2913C20.142 14.3002 20.1235 14.313 20.1079 14.329C20.0924 14.3451 20.0802 14.364 20.0719 14.3848C20.0637 14.4055 20.0597 14.4277 20.06 14.45V15.13C20.0597 15.1525 20.0639 15.1749 20.0723 15.1958C20.0807 15.2167 20.0931 15.2357 20.109 15.2518C20.1248 15.2678 20.1436 15.2806 20.1644 15.2893C20.1852 15.298 20.2075 15.3024 20.23 15.3024C20.2526 15.3024 20.2749 15.298 20.2956 15.2893C20.3164 15.2806 20.3353 15.2678 20.3511 15.2518C20.3669 15.2357 20.3794 15.2167 20.3878 15.1958C20.3962 15.1749 20.4003 15.1525 20.4 15.13V14.45C20.4004 14.4272 20.3962 14.4046 20.3876 14.3835C20.3791 14.3624 20.3664 14.3432 20.3502 14.3271C20.3341 14.311 20.315 14.2983 20.2939 14.2898C20.2727 14.2812 20.2501 14.277 20.2274 14.2774Z" fill="white"/>
</svg>
